<svg xmlns="http://www.w3.org/2000/svg" viewBox="0 0 1200 900">
  <defs>
    <linearGradient id="bg" x1="0" y1="0" x2="1" y2="1">
      <stop offset="0" stop-color="#111816"/>
      <stop offset="0.55" stop-color="#243b34"/>
      <stop offset="1" stop-color="#8d342f"/>
    </linearGradient>
    <radialGradient id="moon" cx="0.7" cy="0.22" r="0.24">
      <stop offset="0" stop-color="#ffe39b"/>
      <stop offset="1" stop-color="#ffe39b" stop-opacity="0"/>
    </radialGradient>
  </defs>
  <rect width="1200" height="900" fill="url(#bg)"/>
  <rect width="1200" height="900" fill="url(#moon)"/>
  <g fill="#f3d47c" opacity="0.9">
    <circle cx="180" cy="160" r="3"/>
    <circle cx="292" cy="230" r="2.5"/>
    <circle cx="482" cy="120" r="3"/>
    <circle cx="690" cy="170" r="2"/>
    <circle cx="920" cy="260" r="3"/>
    <circle cx="1012" cy="120" r="2"/>
  </g>
  <g transform="translate(600 700)" fill="#b29b72">
    <rect x="-260" y="76" width="520" height="38" rx="6" fill="#775b41"/>
    <g>
      <rect x="-150" y="20" width="300" height="28" rx="5"/>
      <rect x="-142" y="-15" width="284" height="28" rx="5"/>
      <rect x="-132" y="-50" width="264" height="28" rx="5"/>
      <rect x="-120" y="-85" width="240" height="28" rx="5"/>
      <rect x="-106" y="-120" width="212" height="28" rx="5"/>
      <rect x="-92" y="-155" width="184" height="28" rx="5"/>
      <rect x="-76" y="-190" width="152" height="28" rx="5"/>
      <rect x="-60" y="-225" width="120" height="28" rx="5"/>
      <rect x="-92" y="-276" width="184" height="30" rx="4" fill="#cfb36f"/>
      <rect x="-62" y="-324" width="124" height="48" rx="4" fill="#82694d"/>
    </g>
  </g>
  <path d="M250 650 C420 560 720 560 950 650" fill="none" stroke="#e0b65a" stroke-width="4" opacity="0.65"/>
</svg>
