<svg xmlns="http://www.w3.org/2000/svg" viewBox="0 0 1200 900">
  <defs>
    <linearGradient id="bg" x1="0" y1="0" x2="0" y2="1">
      <stop offset="0" stop-color="#09142a"/>
      <stop offset="0.58" stop-color="#14231f"/>
      <stop offset="1" stop-color="#271914"/>
    </linearGradient>
    <radialGradient id="haze" cx="0.5" cy="0.36" r="0.52">
      <stop offset="0" stop-color="#a6d8ff" stop-opacity="0.42"/>
      <stop offset="1" stop-color="#a6d8ff" stop-opacity="0"/>
    </radialGradient>
  </defs>
  <rect width="1200" height="900" fill="url(#bg)"/>
  <rect width="1200" height="900" fill="url(#haze)"/>
  <g opacity="0.88">
    <path d="M130 340 C300 220 470 450 650 300 S920 240 1070 390" fill="none" stroke="#d9c78a" stroke-width="5"/>
    <g fill="#f6e3a0">
      <circle cx="130" cy="340" r="8"/>
      <circle cx="300" cy="255" r="5"/>
      <circle cx="470" cy="405" r="6"/>
      <circle cx="650" cy="300" r="7"/>
      <circle cx="860" cy="270" r="5"/>
      <circle cx="1070" cy="390" r="7"/>
    </g>
  </g>
  <g transform="translate(600 710)" fill="#9f9179">
    <rect x="-250" y="74" width="500" height="34" rx="6" fill="#6d5845"/>
    <rect x="-146" y="18" width="292" height="28" rx="4"/>
    <rect x="-138" y="-18" width="276" height="28" rx="4"/>
    <rect x="-128" y="-54" width="256" height="28" rx="4"/>
    <rect x="-116" y="-90" width="232" height="28" rx="4"/>
    <rect x="-102" y="-126" width="204" height="28" rx="4"/>
    <rect x="-88" y="-162" width="176" height="28" rx="4"/>
    <rect x="-72" y="-198" width="144" height="28" rx="4"/>
    <rect x="-56" y="-234" width="112" height="28" rx="4"/>
    <rect x="-88" y="-286" width="176" height="29" rx="4" fill="#d6bd7d"/>
    <rect x="-58" y="-333" width="116" height="48" rx="4" fill="#786a59"/>
  </g>
</svg>
