<svg xmlns="http://www.w3.org/2000/svg" viewBox="0 0 1200 900">
  <defs>
    <linearGradient id="bg" x1="0" y1="0" x2="1" y2="1">
      <stop offset="0" stop-color="#071012"/>
      <stop offset="0.5" stop-color="#152d35"/>
      <stop offset="1" stop-color="#4b1433"/>
    </linearGradient>
    <filter id="glow">
      <feGaussianBlur stdDeviation="8" result="blur"/>
      <feMerge>
        <feMergeNode in="blur"/>
        <feMergeNode in="SourceGraphic"/>
      </feMerge>
    </filter>
  </defs>
  <rect width="1200" height="900" fill="url(#bg)"/>
  <g stroke="#4fb9a9" stroke-width="4" opacity="0.55" filter="url(#glow)">
    <path d="M120 260 H1080"/>
    <path d="M220 170 H980"/>
    <path d="M180 720 H1030"/>
    <circle cx="600" cy="450" r="290" fill="none"/>
    <circle cx="600" cy="450" r="205" fill="none"/>
  </g>
  <g transform="translate(600 710)" fill="#e0b65a" filter="url(#glow)">
    <rect x="-270" y="72" width="540" height="34" rx="4" fill="#9e3632"/>
    <rect x="-152" y="18" width="304" height="27" rx="4"/>
    <rect x="-143" y="-18" width="286" height="27" rx="4"/>
    <rect x="-134" y="-54" width="268" height="27" rx="4"/>
    <rect x="-122" y="-90" width="244" height="27" rx="4"/>
    <rect x="-108" y="-126" width="216" height="27" rx="4"/>
    <rect x="-92" y="-162" width="184" height="27" rx="4"/>
    <rect x="-75" y="-198" width="150" height="27" rx="4"/>
    <rect x="-58" y="-234" width="116" height="27" rx="4"/>
    <rect x="-92" y="-286" width="184" height="29" rx="4" fill="#4fb9a9"/>
    <rect x="-60" y="-333" width="120" height="48" rx="4" fill="#f7e29c"/>
  </g>
</svg>
