<svg xmlns="http://www.w3.org/2000/svg" viewBox="0 0 1200 675">
  <rect width="1200" height="675" fill="#111816"/>
  <path d="M0 520 C240 430 400 560 610 470 S980 400 1200 500 V675 H0 Z" fill="#233b34"/>
  <circle cx="950" cy="120" r="80" fill="#f3d47c"/>
  <g stroke="#f3d47c" stroke-width="3" opacity="0.8">
    <path d="M170 130 L300 200 L450 115 L620 210 L790 130"/>
  </g>
  <g fill="#f3d47c">
    <circle cx="170" cy="130" r="7"/>
    <circle cx="300" cy="200" r="5"/>
    <circle cx="450" cy="115" r="6"/>
    <circle cx="620" cy="210" r="5"/>
    <circle cx="790" cy="130" r="7"/>
  </g>
  <g transform="translate(600 510)" fill="#b9a47a">
    <rect x="-115" y="16" width="230" height="24" rx="4"/>
    <rect x="-105" y="-18" width="210" height="24" rx="4"/>
    <rect x="-94" y="-52" width="188" height="24" rx="4"/>
    <rect x="-80" y="-86" width="160" height="24" rx="4"/>
    <rect x="-64" y="-120" width="128" height="24" rx="4"/>
    <rect x="-86" y="-165" width="172" height="28" rx="4" fill="#e0b65a"/>
  </g>
</svg>
